<svg width="37" height="37" viewBox="0 0 37 37" fill="none" xmlns="http://www.w3.org/2000/svg">
<path d="M21.1671 32.3749C20.896 32.8422 20.507 33.23 20.0389 33.4996C19.5709 33.7692 19.0402 33.9111 18.5 33.9111C17.9598 33.9111 17.4291 33.7692 16.9611 33.4996C16.493 33.23 16.104 32.8422 15.8329 32.3749M27.75 12.3333C27.75 9.88 26.7754 7.52723 25.0407 5.79251C23.306 4.0578 20.9533 3.08325 18.5 3.08325C16.0467 3.08325 13.694 4.0578 11.9593 5.79251C10.2246 7.52723 9.25 9.88 9.25 12.3333C9.25 23.1249 4.625 26.2082 4.625 26.2082H32.375C32.375 26.2082 27.75 23.1249 27.75 12.3333Z" stroke="white" stroke-width="4" stroke-linecap="round" stroke-linejoin="round"/>
</svg>
