<svg width="41" height="41" viewBox="0 0 41 41" fill="none" xmlns="http://www.w3.org/2000/svg">
<g clip-path="url(#clip0_1_182)">
<rect x="0.5" y="0.5" width="40" height="40" rx="20" fill="black"/>
<path d="M17.75 30.5L17.35 27.3C17.1333 27.2167 16.9292 27.1167 16.7375 27C16.5458 26.8833 16.3583 26.7583 16.175 26.625L13.2 27.875L10.45 23.125L13.025 21.175C13.0083 21.0583 13 20.9458 13 20.8375V20.1625C13 20.0542 13.0083 19.9417 13.025 19.825L10.45 17.875L13.2 13.125L16.175 14.375C16.3583 14.2417 16.55 14.1167 16.75 14C16.95 13.8833 17.15 13.7833 17.35 13.7L17.75 10.5H23.25L23.65 13.7C23.8667 13.7833 24.0708 13.8833 24.2625 14C24.4542 14.1167 24.6417 14.2417 24.825 14.375L27.8 13.125L30.55 17.875L27.975 19.825C27.9917 19.9417 28 20.0542 28 20.1625V20.8375C28 20.9458 27.9833 21.0583 27.95 21.175L30.525 23.125L27.775 27.875L24.825 26.625C24.6417 26.7583 24.45 26.8833 24.25 27C24.05 27.1167 23.85 27.2167 23.65 27.3L23.25 30.5H17.75ZM19.5 28.5H21.475L21.825 25.85C22.3417 25.7167 22.8208 25.5208 23.2625 25.2625C23.7042 25.0042 24.1083 24.6917 24.475 24.325L26.95 25.35L27.925 23.65L25.775 22.025C25.8583 21.7917 25.9167 21.5458 25.95 21.2875C25.9833 21.0292 26 20.7667 26 20.5C26 20.2333 25.9833 19.9708 25.95 19.7125C25.9167 19.4542 25.8583 19.2083 25.775 18.975L27.925 17.35L26.95 15.65L24.475 16.7C24.1083 16.3167 23.7042 15.9958 23.2625 15.7375C22.8208 15.4792 22.3417 15.2833 21.825 15.15L21.5 12.5H19.525L19.175 15.15C18.6583 15.2833 18.1792 15.4792 17.7375 15.7375C17.2958 15.9958 16.8917 16.3083 16.525 16.675L14.05 15.65L13.075 17.35L15.225 18.95C15.1417 19.2 15.0833 19.45 15.05 19.7C15.0167 19.95 15 20.2167 15 20.5C15 20.7667 15.0167 21.025 15.05 21.275C15.0833 21.525 15.1417 21.775 15.225 22.025L13.075 23.65L14.05 25.35L16.525 24.3C16.8917 24.6833 17.2958 25.0042 17.7375 25.2625C18.1792 25.5208 18.6583 25.7167 19.175 25.85L19.5 28.5ZM20.55 24C21.5167 24 22.3417 23.6583 23.025 22.975C23.7083 22.2917 24.05 21.4667 24.05 20.5C24.05 19.5333 23.7083 18.7083 23.025 18.025C22.3417 17.3417 21.5167 17 20.55 17C19.5667 17 18.7375 17.3417 18.0625 18.025C17.3875 18.7083 17.05 19.5333 17.05 20.5C17.05 21.4667 17.3875 22.2917 18.0625 22.975C18.7375 23.6583 19.5667 24 20.55 24Z" fill="white"/>
</g>
<defs>
<clipPath id="clip0_1_182">
<rect x="0.5" y="0.5" width="40" height="40" rx="20" fill="white"/>
</clipPath>
</defs>
</svg>
