<svg width="29" height="24" viewBox="0 0 29 24" fill="none" xmlns="http://www.w3.org/2000/svg">
<path d="M3.5 23.3333C2.74375 23.3333 2.09063 23.0618 1.54063 22.5187C1.01354 21.952 0.75 21.2791 0.75 20.5V3.49996C0.75 2.72079 1.01354 2.05968 1.54063 1.51663C2.09063 0.949959 2.74375 0.666626 3.5 0.666626H25.5C26.2563 0.666626 26.8979 0.949959 27.425 1.51663C27.975 2.05968 28.25 2.72079 28.25 3.49996V20.5C28.25 21.2791 27.975 21.952 27.425 22.5187C26.8979 23.0618 26.2563 23.3333 25.5 23.3333H3.5ZM14.5 13.4166L25.5 6.33329V3.49996L14.5 10.5833L3.5 3.49996V6.33329L14.5 13.4166Z" fill="white"/>
</svg>
