<svg width="39" height="39" viewBox="0 0 39 39" fill="none" xmlns="http://www.w3.org/2000/svg">
<path d="M6.5 32.5C5.60625 32.5 4.83438 32.1885 4.18438 31.5656C3.56146 30.9156 3.25 30.1438 3.25 29.25V9.75C3.25 8.85625 3.56146 8.09792 4.18438 7.475C4.83438 6.825 5.60625 6.5 6.5 6.5H32.5C33.3938 6.5 34.1521 6.825 34.775 7.475C35.425 8.09792 35.75 8.85625 35.75 9.75V29.25C35.75 30.1438 35.425 30.9156 34.775 31.5656C34.1521 32.1885 33.3938 32.5 32.5 32.5H6.5ZM19.5 21.125L32.5 13V9.75L19.5 17.875L6.5 9.75V13L19.5 21.125Z" fill="white"/>
</svg>
